<svg xmlns="http://www.w3.org/2000/svg" viewBox="0 0 800 300"><g fill="none" transform="translate(-34.85 11.15)scale(1.15)"><path stroke="#f50" stroke-width="23.478" d="M60 170V70a50 50 0 0 1 50-50h20"/><path stroke="#c00" stroke-width="23.478" d="M60 170v-35a50 50 0 0 1 50-50h20"/><circle cx="140" cy="20" r="16.522" stroke="#f50" stroke-width="13.913"/><circle cx="140" cy="85" r="16.522" stroke="#c00" stroke-width="13.913"/><circle cx="60" cy="180" r="16.522" stroke="#c00" stroke-width="13.913"/></g><g fill="#f50" font-family="Montserrat" font-size="226.667" style="line-height:1.25;-inkscape-font-specification:&quot;Montserrat, @wght=451&quot;;font-variation-settings:&quot;wght&quot;451"><path d="M202.327 241.983q-17.68 0-31.734-7.706-13.826-7.934-21.986-21.76-7.934-13.827-7.934-31.507 0-17.907 7.934-31.507 8.16-13.826 21.986-21.533 13.827-7.933 31.734-7.933 17.68 0 31.506 7.933 14.054 7.707 21.987 21.533 7.933 13.6 7.933 31.507 0 17.68-7.933 31.507-7.933 13.826-21.987 21.76-13.826 7.706-31.506 7.706m0-16.546q12.24 0 21.76-5.44 9.52-5.667 14.96-15.64 5.666-10.2 5.666-23.347 0-13.373-5.666-23.347-5.44-9.973-14.96-15.413t-21.76-5.44-21.76 5.44-15.187 15.413q-5.44 9.974-5.44 23.347 0 13.147 5.44 23.347 5.667 9.973 15.187 15.64 9.52 5.44 21.76 5.44m77.523 15.413V121.17h18.134v32.64l-1.813-7.027q4.986-12.92 16.773-19.72 11.786-7.027 29.24-7.027v18.587q-1.133-.226-2.267-.226-1.133-.227-2.266-.227-17.907 0-28.334 11.107-10.426 10.88-10.426 31.28v60.293zm125.298 45.107q-16.32 0-31.734-4.76-15.187-4.533-24.933-13.147l9.52-14.733q8.385 7.48 20.626 11.786 12.467 4.307 25.84 4.307 21.987 0 32.414-10.427c6.951-6.8 9.393-17.34 10.426-31.506l2-27.427 2.267-22.213-1.587-22.214 8.72-9.746c11.18 15.476 7.414 50.817 7.414 79.56q0 31.28-15.413 45.786-15.414 14.734-45.56 14.734m1.28-49.867q-17.227 0-31.054-7.253-13.6-7.48-21.533-20.627-7.935-13.147-7.934-30.373 0-17.227 7.934-30.147 7.933-13.148 21.533-20.4 13.827-7.254 31.053-7.254c10.427 0 23.796 2.192 32.107 6.574q12.693 6.347 20.174 19.266c5.137 8.614 5.706 19.267 5.706 31.96 0 12.845-4.569 23.574-9.706 32.187q-7.48 12.92-20.174 19.494-12.467 6.573-28.106 6.573m-.187-16.773q12.693 0 22.44-5.214 9.747-5.212 15.186-14.506 5.667-9.52 5.667-21.76t-5.667-21.534q-5.439-9.293-15.186-14.28-9.747-5.213-22.44-5.213-12.467 0-22.214 5.213-9.746 4.987-15.413 14.28-5.44 9.294-5.44 21.534c0 12.24 1.813 15.413 5.44 21.76q5.667 9.292 15.413 14.506c9.746 5.214 13.903 5.214 22.214 5.214m195.621 66.64q-7.48 0-14.28-1.814-6.8-1.812-11.333-5.666l6.346-14.28q7.028 5.667 18.134 5.666 9.066 0 13.826-5.44 4.987-5.439 4.987-16.32V141.17h19.04v106.933q0 17.454-9.52 27.654t-27.2 10.2m115.471-43.974q-17.68 0-31.734-7.706-13.826-7.934-21.986-21.76-7.934-13.827-7.934-31.507 0-17.907 7.933-31.507 8.16-13.826 21.987-21.533 13.827-7.933 31.734-7.933 17.68 0 31.506 7.933 14.054 7.707 21.987 21.533 7.933 13.6 7.933 31.507 0 17.68-7.933 31.507-7.933 13.826-21.987 21.76-13.826 7.706-31.506 7.706m0-16.546q12.24 0 21.76-5.44 9.52-5.667 14.96-15.64 5.666-10.2 5.666-23.347 0-13.373-5.666-23.347-5.44-9.973-14.96-15.413t-21.76-5.44-21.76 5.44-15.187 15.413q-5.44 9.974-5.44 23.347 0 13.147 5.44 23.347 5.667 9.973 15.187 15.64 9.52 5.44 21.76 5.44"/><path d="M547.138 242.247q-18.813 0-33.32-7.707-14.28-7.933-22.44-21.76-7.933-13.827-7.933-31.507t7.707-31.506q7.706-13.827 21.08-21.534 13.6-7.933 30.826-7.933 16.32 0 29.24 7.253t20.627 20.4q7.934 12.92 8.387 30.374l-101.774 19.946-.906-13.826 91.573-17.68-7.026 9.973q0-11.333-5.214-20.4-4.986-9.067-14.053-14.28-9.067-5.44-20.854-5.44-12.013 0-21.533 5.44-9.293 5.44-14.507 15.187-5.213 9.746-5.213 22.893 0 13.827 5.667 24.253 5.893 10.2 16.093 15.867 10.427 5.44 24.027 5.44 10.88 0 19.947-3.627 9.066-3.853 15.64-11.56l10.426 12.24q-7.707 9.52-19.72 14.507t-26.747 4.987" style="line-height:1.25;-inkscape-font-specification:&quot;Montserrat, @wght=451&quot;;font-feature-settings:&quot;ss01&quot;;font-variation-settings:&quot;wght&quot;451"/></g><circle cx="628" cy="108.9" r="17.25" fill="none" stroke="#f50" stroke-width="13.8"/></svg>